<?xml version="1.0" encoding="utf-8"?>
<!-- Generator: Adobe Illustrator 19.2.1, SVG Export Plug-In . SVG Version: 6.00 Build 0)  -->
<svg version="1.1" id="Outlined" xmlns="http://www.w3.org/2000/svg" xmlns:xlink="http://www.w3.org/1999/xlink" x="0px" y="0px"
	 viewBox="0 0 45 45" style="enable-background:new 0 0 45 45;" xml:space="preserve">
<style type="text/css">
	.st0{fill:#FFFFFF;}
</style>
<title>Icons-03-OUTLINED</title>
<path class="st0" d="M11.3,36.5h22.3c1.5,0,2.8-1.3,2.8-2.8V18.5h-7.7c0.4,0.9,0.7,1.9,0.7,2.9c0,3.8-3.1,6.8-6.9,6.8
	c-3.8,0-6.8-3.1-6.8-6.9c0-1,0.2-2,0.6-2.8H8.6v15.2C8.6,35.2,9.8,36.5,11.3,36.5C11.3,36.5,11.3,36.5,11.3,36.5z"/>
<path class="st0" d="M22.5,27.4c3.3,0,6-2.7,6-6s-2.7-6-6-6s-6,2.7-6,6C16.6,24.7,19.2,27.4,22.5,27.4
	C22.5,27.4,22.5,27.4,22.5,27.4z M22.5,16.5c2.7,0,5,2.2,5,5s-2.2,4.9-5,4.9s-4.9-2.2-4.9-4.9S19.8,16.5,22.5,16.5z"/>
<path class="st0" d="M33.7,8.6H11.3c-1.5,0-2.8,1.3-2.8,2.8v6h8.5c2.3-3,6.6-3.6,9.6-1.3c0.5,0.4,1,0.8,1.3,1.3h8.4v-6
	C36.5,9.8,35.2,8.6,33.7,8.6z M10.5,16.5H9.4v-4.3c0-1.6,1.1-1.8,1.1-1.8L10.5,16.5L10.5,16.5z M12.3,16.5h-1.1v-6.1h1.1L12.3,16.5
	L12.3,16.5z M14,16.5h-1.1v-6.1H14V16.5z M15.7,16.5h-1.1v-6.1h1.1V16.5z M35,13.9c0,1.2-0.9,2.1-2.1,2.1c0,0,0,0,0,0h-2.1
	c-1.2,0-2.1-0.9-2.1-2.1v-1.4c0-1.2,0.9-2.1,2.1-2.1h2.1c1.2,0,2.1,0.9,2.1,2.1L35,13.9L35,13.9z"/>
</svg>

