<?xml version="1.0" encoding="utf-8"?>
<!-- Generator: Adobe Illustrator 19.2.1, SVG Export Plug-In . SVG Version: 6.00 Build 0)  -->
<svg version="1.1" id="Outlined" xmlns="http://www.w3.org/2000/svg" xmlns:xlink="http://www.w3.org/1999/xlink" x="0px" y="0px"
	 viewBox="0 0 45 45" style="enable-background:new 0 0 45 45;" xml:space="preserve">
<style type="text/css">
	.st0{fill:#FFFFFF;}
</style>
<title>Icons-03-OUTLINED</title>
<path class="st0" d="M37.5,10.1c-1.3,0.8-2.7,1.3-4.1,1.6c-2.5-2.6-6.6-2.7-9.2-0.3c-1.3,1.2-2,2.9-2,4.7c0,0.5,0.1,1,0.2,1.5
	c-5.2-0.3-10.1-2.7-13.4-6.8c-1.7,3-0.8,6.8,2,8.7c-1,0-2-0.3-2.9-0.8c0,0,0,0.1,0,0.1c0,3.1,2.2,5.8,5.2,6.4
	c-0.6,0.2-1.1,0.2-1.7,0.2c-0.4,0-0.8,0-1.2-0.1c0.9,2.6,3.3,4.4,6.1,4.5c-2.7,2.1-6.2,3.1-9.6,2.7c3,1.9,6.4,2.9,10,2.9
	c12,0,18.5-9.9,18.5-18.5V16c1.3-0.9,2.4-2.1,3.2-3.4c-1.2,0.5-2.4,0.9-3.7,1C36,12.9,37,11.6,37.5,10.1z"/>
</svg>

