<?xml version="1.0" encoding="utf-8"?>
<!-- Generator: Adobe Illustrator 19.2.1, SVG Export Plug-In . SVG Version: 6.00 Build 0)  -->
<svg version="1.1" id="Outlined" xmlns="http://www.w3.org/2000/svg" xmlns:xlink="http://www.w3.org/1999/xlink" x="0px" y="0px"
	 viewBox="0 0 45 45" style="enable-background:new 0 0 45 45;" xml:space="preserve">
<style type="text/css">
	.st0{fill:#FFFFFF;}
</style>
<title>Icons-03-OUTLINED</title>
<path class="st0" d="M30.4,15.9c-2.7-0.1-5.2,1.2-6.6,3.5h-0.1l-0.3-3h-5.8c0.1,1.9,0.2,4.2,0.2,6.9v14.7h6.7V25.5
	c0-0.6,0.1-1.1,0.2-1.7c0.5-1.2,1.6-2.5,3.4-2.5c2.4,0,3.4,1.9,3.4,4.7v11.9h6.7V25.2C38.1,18.9,34.8,15.9,30.4,15.9z M7,16.4h6.7
	v21.5H7V16.4z M10.4,7.1c-2.2,0-3.6,1.4-3.6,3.3c0,1.8,1.4,3.3,3.2,3.3c0.1,0,0.2,0,0.2,0c2.2,0,3.6-1.5,3.6-3.3S12.6,7.1,10.4,7.1z
	"/>
</svg>

